<svg xmlns="http://www.w3.org/2000/svg" fill="none" viewBox="0 7.401992721518988 31.309845 31.787664556962024" style="max-height: 500px" width="31.309845" height="31.787664556962024">
<path fill="#006FE8" d="M15.6568 39.083C13.4982 39.083 11.4671 38.667 9.56465 37.8348C7.66225 37.0027 6.00321 35.8739 4.59103 34.4448C3.17769 33.017 2.05918 31.3421 1.23551 29.419C0.411836 27.497 0 25.445 0 23.2642C0 21.0834 0.411836 19.0315 1.23551 17.1096C2.05801 15.1876 3.17652 13.5127 4.59103 12.0848C6.00438 10.657 7.66225 9.52699 9.56465 8.69485C11.4671 7.8639 13.4982 7.44666 15.6568 7.44666C17.8154 7.44666 19.8465 7.86272 21.7489 8.69485C23.6513 9.52699 25.3092 10.657 26.7237 12.0848C28.137 13.5127 29.2555 15.1876 30.0792 17.1096C30.9017 19.0315 31.3147 21.0846 31.3147 23.2642C31.3147 25.445 30.9029 27.497 30.0792 29.419C29.2555 31.3409 28.137 33.017 26.7237 34.4448C25.3103 35.8727 23.6525 37.0027 21.7489 37.8348C19.8465 38.667 17.8154 39.083 15.6568 39.083ZM15.6568 12.9453C14.254 12.9453 12.9307 13.216 11.6835 13.7562C10.4375 14.2964 9.35171 15.0339 8.42859 15.9689C7.5043 16.9039 6.77657 18.002 6.24188 19.2632C5.7072 20.5244 5.44044 21.8648 5.44044 23.2832C5.44044 24.7028 5.7072 26.0361 6.24188 27.2866C6.77657 28.5372 7.5043 29.6282 8.42859 30.5631C9.35171 31.4981 10.4363 32.2357 11.6835 32.7758C12.9295 33.316 14.254 33.5867 15.6568 33.5867C17.0584 33.5867 18.3828 33.3172 19.6289 32.7758C20.8749 32.2357 21.9607 31.4981 22.8838 30.5631C23.8069 29.6282 24.5358 28.536 25.0705 27.2866C25.6052 26.0361 25.8719 24.7028 25.8719 23.2832C25.8719 21.8648 25.6052 20.5244 25.0705 19.2632C24.537 18.002 23.8069 16.9039 22.8838 15.9689C21.9595 15.0339 20.8749 14.2964 19.6289 13.7562C18.3828 13.2148 17.0596 12.9453 15.6568 12.9453ZM10.8832 23.2654C10.8832 22.5905 11.0049 21.9617 11.2506 21.3766C11.4951 20.7927 11.8356 20.2809 12.2685 19.8423C12.7026 19.4038 13.208 19.0551 13.7871 18.7963C14.3651 18.5386 14.9887 18.4086 15.6568 18.4086C16.3248 18.4086 16.9473 18.5386 17.5264 18.7963C18.1044 19.0551 18.611 19.4038 19.0451 19.8423C19.4791 20.2809 19.8243 20.7927 20.0805 21.3766C20.3356 21.9617 20.4643 22.5905 20.4643 23.2654C20.4643 23.9404 20.3356 24.5692 20.0805 25.1543C19.8243 25.7394 19.4791 26.25 19.0451 26.6885C18.611 27.127 18.1044 27.4757 17.5264 27.7334C16.9473 27.9923 16.3248 28.1211 15.6568 28.1211C14.9887 28.1211 14.3663 27.9923 13.7871 27.7334C13.208 27.4757 12.7014 27.1259 12.2685 26.6885C11.8344 26.25 11.4951 25.7394 11.2506 25.1543C11.0049 24.5692 10.8832 23.9392 10.8832 23.2654Z"/>
<path fill="#002F7A" d="M35.3442 26.705C35.3442 24.997 35.666 23.3883 36.3106 21.8824C36.9553 20.3766 37.834 19.0669 38.9443 17.9535C40.0558 16.84 41.3556 15.9582 42.845 15.3058C44.3344 14.6533 45.9233 14.3282 47.6127 14.3282C49.3022 14.3282 50.8852 14.6545 52.3629 15.3058C53.8417 15.9582 55.1358 16.84 56.2472 17.9535C57.3587 19.0669 58.2362 20.3766 58.8809 21.8824C59.5256 23.3895 59.8473 24.997 59.8473 26.705C59.8473 28.4142 59.5256 30.0158 58.8809 31.5111C58.2362 33.0063 57.3587 34.316 56.2472 35.44C55.1358 36.5641 53.8417 37.453 52.3629 38.1043C50.884 38.7567 49.301 39.0818 47.6127 39.0818C46.9236 39.0818 46.245 39.0262 45.5793 38.9128C44.9124 38.8005 44.2677 38.6433 43.6453 38.4412V32.303C44.2244 32.7072 44.848 33.0228 45.5173 33.2474C46.1853 33.472 46.8873 33.5843 47.6233 33.5843C48.5592 33.5843 49.4391 33.4046 50.2628 33.0441C51.0864 32.6848 51.806 32.1954 52.419 31.5772C53.0309 30.9591 53.5165 30.2286 53.8722 29.3846C54.229 28.5419 54.4068 27.6471 54.4068 26.7038C54.4068 25.7606 54.2278 24.8658 53.871 24.0231C53.5142 23.1803 53.0286 22.4498 52.4155 21.8304C51.8025 21.2122 51.0817 20.7229 50.2569 20.3636C49.4321 20.0042 48.5499 19.8246 47.6127 19.8246C46.6756 19.8246 45.7887 20.0042 44.9522 20.3636C44.1156 20.7241 43.3902 21.2122 42.7772 21.8304C42.1641 22.4486 41.6774 23.1791 41.3217 24.0231C40.9649 24.8658 40.787 25.7594 40.787 26.7038V48.8629H35.3454V26.705H35.3442Z"/>
<path fill="#002F7A" d="M63.877 39.0831V7.44788H69.3186V14.3957H76.5631C75.4949 15.0482 74.5262 15.846 73.6592 16.7904C72.7911 17.7349 72.068 18.7691 71.4889 19.8932H69.3186V39.0843H63.877V39.0831Z"/>
<path fill="#002F7A" d="M83.6228 14.327H78.1812V39.0829H83.6228V14.327Z"/>
<path fill="#002F7A" d="M83.6657 7.41345H78.2568V12.911H83.6657V7.41345Z"/>
<path fill="#006FE8" d="M83.5599 1.27063H80.3003V4.58497H83.5599V1.27063Z"/>
<path fill="#006FE8" d="M89.2847 0H85.3711V3.97863H89.2847V0Z"/>
<path fill="#006FE8" d="M89.1265 6.23511H85.6738V9.74448H89.1265V6.23511Z"/>
<path fill="#002F7A" d="M103.371 25.2381C103.572 25.6979 103.67 26.1885 103.67 26.705C103.67 27.2216 103.571 27.7062 103.371 28.1553C103.169 28.6045 102.905 28.9969 102.569 29.335C102.234 29.673 101.84 29.9413 101.385 30.1447C100.926 30.348 100.444 30.4472 99.9331 30.4472C99.4183 30.4472 98.9363 30.3468 98.4788 30.1447C98.0237 29.9413 97.6294 29.6742 97.2948 29.335C96.9602 28.9969 96.6946 28.6045 96.4934 28.1553C96.2921 27.7062 96.1938 27.2216 96.1938 26.705C96.1938 26.1885 96.2933 25.6979 96.4934 25.2381C96.6946 24.7783 96.959 24.3777 97.2948 24.042C97.6294 23.7039 98.0237 23.4332 98.4788 23.2323C98.9375 23.029 99.4195 22.9261 99.9331 22.9261C100.444 22.9261 100.926 23.029 101.385 23.2323C101.84 23.432 102.234 23.7027 102.569 24.042C102.904 24.3777 103.169 24.7783 103.371 25.2381Z"/>
<path fill="#002F7A" d="M111.254 21.8824C110.608 20.3777 109.735 19.0681 108.631 17.9523C107.53 16.84 106.234 15.957 104.744 15.3058C103.252 14.6533 101.661 14.3282 99.9706 14.3282C98.2776 14.3282 96.6864 14.6533 95.1947 15.3058C93.7053 15.9582 92.4089 16.84 91.308 17.9523C90.2047 19.0669 89.3307 20.3777 88.6849 21.8824C88.039 23.3895 87.7173 24.997 87.7173 26.705C87.7173 28.4154 88.039 30.0229 88.6849 31.5276C89.3307 33.0347 90.2035 34.3455 91.308 35.4578C92.4089 36.57 93.7053 37.453 95.1947 38.1043C96.6864 38.7567 98.2776 39.0842 99.9706 39.0842C101.661 39.0842 103.252 38.7567 104.744 38.1043C106.234 37.4518 107.53 36.57 108.631 35.4578C109.734 34.3455 110.608 33.0358 111.254 31.5276C111.896 30.0229 112.222 28.4154 112.222 26.705C112.222 24.997 111.897 23.3895 111.254 21.8824ZM106.244 29.3704C105.887 30.2014 105.397 30.9319 104.776 31.5631C104.152 32.1907 103.428 32.686 102.605 33.0465C101.781 33.407 100.902 33.5855 99.9694 33.5855C99.0346 33.5855 98.1536 33.407 97.3311 33.0465C96.5086 32.686 95.7855 32.1907 95.1607 31.5631C94.5371 30.9319 94.0469 30.2014 93.6924 29.3704C93.3356 28.5371 93.1566 27.6494 93.1566 26.705C93.1566 25.7606 93.3356 24.8729 93.6924 24.042C94.0458 23.2087 94.536 22.4782 95.1607 21.8493C95.7855 21.2193 96.5086 20.7229 97.3311 20.3636C98.1536 20.0031 99.0346 19.8246 99.9694 19.8246C100.902 19.8246 101.781 20.0031 102.605 20.3636C103.428 20.7241 104.151 21.2193 104.776 21.8493C105.397 22.477 105.887 23.2075 106.244 24.042C106.6 24.8729 106.78 25.7606 106.78 26.705C106.78 27.6494 106.601 28.5371 106.244 29.3704Z"/>
<path fill="#006FE8" d="M93.4346 39.083C93.6792 39.7355 94.0185 40.3359 94.4525 40.8879C94.8866 41.4387 95.3815 41.9056 95.9384 42.2874C96.4942 42.6692 97.1014 42.9671 97.7578 43.181C98.4141 43.395 99.088 43.5013 99.7772 43.5013C101.223 43.5013 102.515 43.0971 103.65 42.2874C104.785 41.4777 105.62 40.4092 106.154 39.083H111.795C111.529 40.5215 111.022 41.8489 110.277 43.0628C109.53 44.2767 108.623 45.3228 107.555 46.1999C106.487 47.0769 105.285 47.7625 103.951 48.2577C102.616 48.7518 101.224 49 99.7772 49C98.3076 49 96.906 48.7471 95.571 48.2412C94.2361 47.7353 93.0392 47.0438 91.9827 46.1668C90.925 45.2897 90.03 44.2448 89.2952 43.0297C88.5605 41.8158 88.0597 40.5002 87.793 39.0842H93.4346V39.083Z"/>
<path fill="#002F7A" d="M103.67 26.705C103.67 27.2216 103.571 27.7062 103.371 28.1553C103.169 28.6045 102.905 28.9969 102.569 29.335C102.234 29.673 101.84 29.9413 101.385 30.1447C100.926 30.348 100.444 30.4472 99.9331 30.4472C99.4183 30.4472 98.9363 30.3468 98.4788 30.1447C98.0237 29.9413 97.6294 29.6742 97.2948 29.335C96.9602 28.9969 96.6946 28.6045 96.4934 28.1553C96.2921 27.7062 96.1938 27.2216 96.1938 26.705C96.1938 26.1885 96.2933 25.6979 96.4934 25.2381C96.6946 24.7783 96.959 24.3777 97.2948 24.042C97.6294 23.7039 98.0237 23.4332 98.4788 23.2323C98.9375 23.029 99.4195 22.9261 99.9331 22.9261C100.444 22.9261 100.926 23.029 101.385 23.2323C101.84 23.432 102.234 23.7027 102.569 24.042C102.904 24.3777 103.169 24.7783 103.371 25.2381C103.571 25.6979 103.67 26.1885 103.67 26.705Z"/>
<path fill="#006FE8" d="M103.67 26.705C103.67 27.2216 103.571 27.7062 103.371 28.1553C103.169 28.6045 102.905 28.9969 102.569 29.335C102.234 29.673 101.84 29.9413 101.385 30.1447C100.926 30.348 100.444 30.4472 99.9331 30.4472C99.4183 30.4472 98.9363 30.3468 98.4788 30.1447C98.0237 29.9413 97.6294 29.6742 97.2948 29.335C96.9602 28.9969 96.6946 28.6045 96.4934 28.1553C96.2921 27.7062 96.1938 27.2216 96.1938 26.705C96.1938 26.1885 96.2933 25.6979 96.4934 25.2381C96.6946 24.7783 96.959 24.3777 97.2948 24.042C97.6294 23.7039 98.0237 23.4332 98.4788 23.2323C98.9375 23.029 99.4195 22.9261 99.9331 22.9261C100.444 22.9261 100.926 23.029 101.385 23.2323C101.84 23.432 102.234 23.7027 102.569 24.042C102.904 24.3777 103.169 24.7783 103.371 25.2381C103.571 25.6979 103.67 26.1885 103.67 26.705Z"/>
<path fill="#002F7A" d="M117.136 21.8481C117.777 20.3423 118.651 19.0314 119.758 17.9191C120.865 16.8069 122.162 15.9286 123.653 15.288C125.143 14.6474 126.735 14.327 128.426 14.327V19.8245C127.492 19.8245 126.612 20.0042 125.789 20.3635C124.966 20.724 124.243 21.2122 123.619 21.8304C122.995 22.4486 122.506 23.1743 122.151 24.0053C121.794 24.8374 121.616 25.7251 121.616 26.6695V39.0806H116.174V26.6695C116.174 24.9627 116.494 23.3552 117.136 21.8481Z"/>
<path fill="#002F7A" d="M131.462 14.327H136.904V39.0829H131.462V14.327ZM136.904 7.41345V12.911H131.495V7.41345H136.904Z"/>
<path fill="#002F7A" d="M142.285 39.0831V7.44788H147.727V14.3957H154.971C153.903 15.0482 152.934 15.846 152.067 16.7904C151.199 17.7349 150.476 18.7691 149.897 19.8932H147.727V39.0843H142.285V39.0831Z"/>
</svg>